<svg xmlns="http://www.w3.org/2000/svg" version="1.1" xmlns:xlink="http://www.w3.org/1999/xlink" xmlns:svgjs="http://svgjs.dev/svgjs" width="1000" height="623" viewBox="0 0 1000 623"><g transform="matrix(1,0,0,1,-0.6060606060606233,0.2522267206477409)"><svg viewBox="0 0 396 247" data-background-color="#ffffff" preserveAspectRatio="xMidYMid meet" height="623" width="1000" xmlns="http://www.w3.org/2000/svg" xmlns:xlink="http://www.w3.org/1999/xlink"><g id="tight-bounds" transform="matrix(1,0,0,1,0.2400000000000091,-0.09999999999999432)"><svg viewBox="0 0 395.52 247.2" height="247.2" width="395.52"><g><svg></svg></g><g><svg viewBox="0 0 395.52 247.2" height="247.2" width="395.52"><g transform="matrix(1,0,0,1,75.54432,61.199143408612976)"><svg viewBox="0 0 244.43135999999998 124.80171318277404" height="124.80171318277404" width="244.43135999999998"><g><svg viewBox="0 0 244.43135999999998 124.80171318277404" height="124.80171318277404" width="244.43135999999998"><g><svg viewBox="0 0 299.2080809016502 152.7696" height="124.80171318277404" width="244.43135999999998"><g><svg viewBox="0 0 162.63463832635983 152.7696" height="152.7696" width="162.63463832635983"><g id="textblocktransform"><svg viewBox="0 0 162.63463832635983 152.7696" height="152.7696" width="162.63463832635983" id="textblock"><g><svg viewBox="0 0 162.63463832635983 152.7696" height="152.7696" width="162.63463832635983"><g transform="matrix(1,0,0,1,0,0)"><svg width="162.63463832635983" viewBox="2.7850000858306885 -34.75 38.165000915527344 35.849998474121094" height="152.7696" data-palette-color="#000000"><path d="M29.4 0.9L28.7 0.4Q28.4 0.05 28.4 0L28.4 0 23.15-6.05Q23-6.2 22.65-6.65 22.3-7.1 22-7.4L22-7.4 21.25-8.15Q20.9-8.4 20.8-8.4L20.8-8.4Q20.6-8.4 20.5-8.28 20.4-8.15 20.4-8L20.4-8 20.4-7.3 20.4-6.2Q20.4-5.4 20.3-4.95L20.3-4.95 20.3-3.65Q20.25-3.2 20.25-2.55L20.25-2.55 20.25-1.9 20.25-1.15 20.25-0.95Q20.25-0.45 19.9-0.4L19.9-0.4Q19.65-0.2 19.15-0.3L19.15-0.3Q16.55-0.2 15.4-0.2L15.4-0.2 9-0.25 8.15-0.25 7.15-0.25Q6.5-0.25 6.25-0.3L6.25-0.3 5.9-0.3 3.65-0.5 3.5-0.9Q3.45-0.9 3.45-1.45L3.45-1.45Q3.45-2.3 3.4-2.9L3.4-2.9 3.4-4.9Q3.3-5.65 3.3-7.15L3.3-7.15 3.2-11Q3.15-12.25 2.95-14.75L2.95-14.75 2.9-16Q2.8-17.7 2.8-18.5L2.8-18.5 2.8-19Q2.9-19.3 2.9-19.9L2.9-19.9Q2.95-20.55 2.95-21.4L2.95-21.4 2.9-22.4Q2.9-22.75 2.85-22.98 2.8-23.2 2.8-23.3L2.8-23.3Q2.8-23.4 2.85-23.9 2.9-24.4 2.9-24.9L2.9-24.9Q2.95-25.5 2.95-26.4L2.95-26.4 2.95-27.15 2.95-28.15Q2.9-29 2.9-30.65L2.9-30.65Q2.8-31 2.8-31.65L2.8-31.65 2.8-32.15Q2.65-33.3 4-33.5L4-33.5Q4.4-33.65 5.15-33.65L5.15-33.65 6.25-33.65 11.8-33.65 15.9-33.65 18.55-33.65 20.15-33.65Q20.85-33.65 21-32.8L21-32.8Q21.05-32.65 21.05-32.15L21.05-32.15 21.05-31.4Q21.05-30.15 20.95-27.65L20.95-27.65 20.9-26.3Q20.8-25 20.8-24.5L20.8-24.5Q21.4-24.5 21.9-24.8L21.9-24.8Q22.25-25.15 22.25-25.15L22.25-25.15Q22.35-25.2 22.48-25.33 22.6-25.45 22.7-25.55L22.7-25.55Q22.9-25.65 23.65-26.4L23.65-26.4Q24.9-27.65 27.75-30.25L27.75-30.25Q30.5-32.85 32.05-34.05L32.05-34.05Q33-34.7 33.25-34.75L33.25-34.75Q33.35-34.75 33.6-34.5 33.85-34.25 33.95-34.15L33.95-34.15Q33.95-34.15 34.4-33.7L34.4-33.7Q34.5-33.45 34.65-33.4L34.65-33.4 34.95-33.05Q35.4-32.7 35.55-32.45L35.55-32.45 36.15-31.9Q36.3-31.75 36.4-31.63 36.5-31.5 36.55-31.45L36.55-31.45Q36.85-30.95 38.15-29.3L38.15-29.3Q39.15-28.15 39.65-27.05L39.65-27.05 39.65-26.95Q39.65-26.25 38.25-24.75L38.25-24.75 37.15-23.65Q36.55-23.1 36.3-22.8L36.3-22.8Q36.25-22.8 36.15-22.7 36.05-22.6 35.9-22.45L35.9-22.45 33.9-20.9Q33.9-20.9 32.9-19.9L32.9-19.9 32-19.2Q31.9-19.15 31.63-18.93 31.35-18.7 31.15-18.65L31.15-18.65Q31-18.55 30.8-18.43 30.6-18.3 30.55-18.2L30.55-18.2Q30.45-18.15 30.45-17.75L30.45-17.75Q30.45-16.95 31.25-16.25L31.25-16.25Q31.6-15.85 31.95-15.65L31.95-15.65 32.65-15.05Q33.7-14 33.7-14L33.7-14Q34.7-13.15 37.3-10.75L37.3-10.75Q39.3-8.95 40.45-7.5L40.45-7.5Q40.95-6.75 40.95-6.4L40.95-6.4Q40.95-6.1 40.88-5.9 40.8-5.7 40.55-5.45L40.55-5.45Q39.55-4.6 38.7-4.2L38.7-4.2Q37.85-3.75 37.05-3.08 36.25-2.4 35.5-1.75L35.5-1.75Q34.85-1.15 34-0.65L34-0.65 33-0.15Q33-0.15 32.55 0.15L32.55 0.15Q32.1 0.45 31.9 0.65L31.9 0.65Q31.15 1.1 30.35 1.1L30.35 1.1Q29.9 1.1 29.4 0.9L29.4 0.9Z" opacity="1" transform="matrix(1,0,0,1,0,0)" fill="#000000" class="wordmark-text-0" data-fill-palette-color="primary" id="text-0"></path></svg></g></svg></g></svg></g></svg></g><g transform="matrix(1,0,0,1,198.69987441595984,26.13069675715481)"><svg viewBox="0 0 100.50820648569038 100.50820648569038" height="100.50820648569038" width="100.50820648569038"><g><svg xmlns="http://www.w3.org/2000/svg" xmlns:xlink="http://www.w3.org/1999/xlink" version="1.1" x="0" y="0" viewBox="2 2 60 60" style="enable-background:new 0 0 64 64;" xml:space="preserve" height="100.50820648569038" width="100.50820648569038" class="icon-icon-0" data-fill-palette-color="accent" id="icon-0"><path d="M60 30c-0.738 0-1.376 0.405-1.723 1H40v2h18.277c0.346 0.595 0.984 1 1.723 1 1.105 0 2-0.895 2-2C62 30.895 61.105 30 60 30z" fill="#000000" data-fill-palette-color="accent"></path><path d="M60 39c-0.738 0-1.376 0.405-1.723 1h-4.863l-4-4H40v2h8.586l4 4h5.691c0.346 0.595 0.984 1 1.723 1 1.105 0 2-0.895 2-2C62 39.895 61.105 39 60 39z" fill="#000000" data-fill-palette-color="accent"></path><path d="M60 48c-0.738 0-1.376 0.405-1.723 1h-4.863l-8-8H40v2h4.586l8 8h5.691c0.346 0.595 0.984 1 1.723 1 1.105 0 2-0.895 2-2C62 48.895 61.105 48 60 48z" fill="#000000" data-fill-palette-color="accent"></path><path d="M60 61c1.105 0 2-0.895 2-2 0-1.105-0.895-2-2-2-0.738 0-1.376 0.405-1.723 1h-3.863l-12-12H40v2h1.586l12 12h4.691C58.624 60.595 59.262 61 60 61z" fill="#000000" data-fill-palette-color="accent"></path><path d="M60 21c-0.738 0-1.376 0.405-1.723 1h-5.691l-4 4H40v2h9.414l4-4h4.863c0.346 0.595 0.984 1 1.723 1 1.105 0 2-0.895 2-2C62 21.895 61.105 21 60 21z" fill="#000000" data-fill-palette-color="accent"></path><path d="M60 12c-0.738 0-1.376 0.405-1.723 1h-5.691l-8 8H40v2h5.414l8-8h4.863c0.346 0.595 0.984 1 1.723 1 1.105 0 2-0.895 2-2C62 12.895 61.105 12 60 12z" fill="#000000" data-fill-palette-color="accent"></path><path d="M60 3c-0.738 0-1.376 0.405-1.723 1h-4.691l-12 12H40v2h2.414l12-12h3.863C58.624 6.595 59.262 7 60 7c1.105 0 2-0.895 2-2C62 3.895 61.105 3 60 3z" fill="#000000" data-fill-palette-color="accent"></path><path d="M24 49c1.862 0 3.412-1.278 3.859-3H34v2c0 1.105 0.895 2 2 2s2-0.895 2-2V15c0-1.105-0.895-2-2-2s-2 0.895-2 2v3h-6.141c-0.446-1.722-1.997-3-3.859-3-0.97 0-1.847 0.359-2.539 0.933L9.718 7.452C9.895 7.001 10 6.514 10 6c0-2.209-1.791-4-4-4S2 3.791 2 6c0 2.209 1.791 4 4 4 0.97 0 1.847-0.359 2.539-0.933l11.743 8.481c-0.057 0.146-0.101 0.298-0.14 0.452H9.859C9.413 16.278 7.862 15 6 15c-2.209 0-4 1.791-4 4 0 2.209 1.791 4 4 4 0.97 0 1.847-0.359 2.539-0.933l4.753 3.433-4.753 3.433C7.847 28.359 6.97 28 6 28c-2.209 0-4 1.791-4 4 0 2.209 1.791 4 4 4 0.97 0 1.847-0.359 2.539-0.933l4.753 3.433-4.753 3.433C7.847 41.359 6.97 41 6 41c-2.209 0-4 1.791-4 4 0 2.209 1.791 4 4 4 1.862 0 3.412-1.278 3.859-3h10.283c0.049 0.19 0.099 0.381 0.174 0.559l-11.4 8.718C8.185 54.496 7.154 54 6 54c-2.209 0-4 1.791-4 4 0 2.209 1.791 4 4 4s4-1.791 4-4c0-0.326-0.05-0.638-0.123-0.941l11.668-8.922C22.224 48.669 23.069 49 24 49zM27.859 44c-0.446-1.722-1.997-3-3.859-3-0.97 0-1.847 0.359-2.539 0.933L16.708 38.5l4.753-3.433C22.153 35.641 23.03 36 24 36c1.862 0 3.412-1.278 3.859-3H34v11H27.859zM27.859 20H34v11h-6.141c-0.446-1.722-1.997-3-3.859-3-0.97 0-1.847 0.359-2.539 0.933L16.708 25.5l4.753-3.433C22.153 22.641 23.03 23 24 23 25.862 23 27.412 21.722 27.859 20zM9.718 20.452c0.057-0.146 0.1-0.298 0.14-0.452h10.283c0.04 0.154 0.083 0.306 0.14 0.452L15 24.267 9.718 20.452zM20.282 30.548c-0.057 0.146-0.101 0.298-0.14 0.452H9.859c-0.04-0.154-0.083-0.306-0.14-0.452L15 26.733 20.282 30.548zM9.718 33.452c0.057-0.146 0.1-0.298 0.14-0.452h10.283c0.04 0.154 0.083 0.306 0.14 0.452L15 37.267 9.718 33.452zM20.282 43.548c-0.057 0.146-0.101 0.298-0.14 0.452H9.859c-0.04-0.154-0.083-0.306-0.14-0.452L15 39.733 20.282 43.548z" fill="#000000" data-fill-palette-color="accent"></path><rect x="30" y="23" width="2" height="2" fill="#000000" data-fill-palette-color="accent"></rect><rect x="30" y="27" width="2" height="2" fill="#000000" data-fill-palette-color="accent"></rect><rect x="30" y="35" width="2" height="2" fill="#000000" data-fill-palette-color="accent"></rect><rect x="30" y="39" width="2" height="2" fill="#000000" data-fill-palette-color="accent"></rect></svg></g></svg></g></svg></g></svg></g></svg></g><path d="M153.332 55.199L153.332 8.164 384.204 8.164 384.204 239.036 153.332 239.036 153.332 192.001 164.587 192.001 164.587 227.781 372.949 227.781 372.949 19.419 164.587 19.419 164.587 55.199Z" fill="#000000" stroke="transparent" data-fill-palette-color="primary"></path></svg></g><defs></defs></svg><rect width="395.52" height="247.2" fill="none" stroke="none" visibility="hidden"></rect></g></svg></g></svg>